<svg xmlns="http://www.w3.org/2000/svg" viewBox="0 0 8173 5262" fill="currentColor" aria-label="MovUP">
    <g transform="translate(0.000000,5262.000000) scale(0.100000,-0.100000)">
        <path fill-rule="evenodd" d="M42740.0 1995.0 L34345.0 4940.0 L32760.0 12655.0 L24530.0 8385.0 L17525.0 10960.0 L16060.0 17975.0 L8790.0 14015.0 L2005.0 16890.0 L12330.0 46615.0 L20530.0 50625.0 L26050.0 48725.0 L28250.0 36505.0 L29690.0 40485.0 L37720.0 44385.0 L37980.0 44435.0 L44235.0 42190.0 L50945.0 6350.0 L42740.0 1995.0 Z M18395.0 44690.0 L25925.0 48510.0 L20480.0 50305.0 L12745.0 46530.0 L18395.0 44690.0 Z M22195.0 19600.0 L28075.0 35940.0 L25890.0 48115.0 L18535.0 44420.0 L22195.0 19600.0 Z M35855.0 38210.0 L43795.0 42080.0 L37890.0 44175.0 L30045.0 40360.0 L35855.0 38210.0 Z M42795.0 2330.0 L50705.0 6530.0 L44040.0 41855.0 L36065.0 37970.0 L42795.0 2330.0 Z M9035.0 14470.0 L16005.0 18300.0 L14140.0 27375.0 L9035.0 14470.0 Z M24895.0 8860.0 L32705.0 12970.0 L30980.0 21475.0 L24895.0 8860.0 Z"/>
    <path d="M78350 45583 c-19 -2 -119 -19 -221 -38 -213 -40 -402 -93 -654 -184
-218 -79 -275 -100 -322 -124 -26 -14 -59 -28 -73 -32 -14 -4 -97 -42 -185
-85 -186 -90 -339 -160 -349 -160 -4 0 -73 -32 -154 -71 -81 -39 -210 -99
-287 -134 -77 -34 -153 -70 -170 -78 -16 -9 -88 -44 -160 -78 -184 -87 -213
-101 -365 -170 -74 -34 -146 -69 -160 -79 -14 -10 -36 -21 -50 -25 -14 -4 -70
-28 -125 -55 -115 -56 -248 -118 -355 -167 -41 -19 -102 -47 -135 -63 -33 -16
-103 -48 -155 -73 -52 -24 -116 -54 -142 -66 -26 -12 -62 -39 -81 -60 l-34
-37 -6 -155 c-4 -85 -11 -329 -17 -544 -12 -492 -39 -1313 -60 -1815 -5 -124
-14 -448 -20 -720 -10 -458 -26 -955 -50 -1495 -9 -205 -16 -439 -40 -1420 -5
-209 -16 -531 -24 -715 -9 -184 -20 -528 -26 -765 -5 -236 -12 -464 -15 -505
-3 -41 -10 -271 -15 -510 -6 -239 -17 -613 -25 -830 -18 -487 -22 -588 -40
-1275 -32 -1177 -36 -1320 -50 -1615 -8 -168 -17 -417 -20 -555 -24 -1030 -49
-1845 -65 -2135 -5 -102 -14 -396 -20 -655 -17 -787 -45 -1667 -60 -1899 -18
-274 -24 -659 -11 -684 16 -31 45 -27 121 15 36 20 101 55 145 78 146 76 197
104 208 113 7 6 41 25 77 44 36 19 79 42 95 51 17 9 48 25 70 35 50 24 197
102 210 112 6 4 71 39 145 78 74 38 169 89 210 113 41 23 129 70 195 104 66
34 172 90 235 125 63 34 180 96 260 137 80 42 152 81 160 88 8 7 40 25 70 39
30 14 96 48 145 76 50 27 114 61 144 75 129 62 151 97 151 247 1 56 5 175 10
263 15 261 29 655 45 1255 22 851 34 1216 45 1420 15 265 28 682 40 1240 6
267 13 496 15 510 3 14 12 237 20 495 8 259 20 589 25 735 12 299 29 951 30
1079 l0 84 39 37 c24 23 111 72 232 132 237 117 249 123 374 188 55 29 118 62
140 73 49 24 119 66 205 122 36 23 99 61 140 85 41 24 86 50 100 60 85 58 142
99 196 144 33 28 105 87 158 131 269 219 612 620 792 925 15 25 35 58 46 73
18 26 184 353 242 477 24 53 66 167 107 295 73 224 93 293 114 396 13 64 29
129 35 144 6 16 17 77 25 135 8 58 19 119 25 136 7 16 16 70 20 119 5 50 18
128 29 175 10 47 22 136 25 198 4 63 16 159 27 215 13 65 24 175 29 302 5 110
14 265 19 345 6 80 13 192 16 250 3 58 15 220 25 360 12 152 24 461 30 765 6
281 19 697 30 925 22 452 43 1784 29 1885 -4 33 -8 139 -9 235 -1 96 -6 198
-11 225 -5 28 -13 111 -18 185 -10 152 -25 282 -46 385 -40 198 -69 317 -95
385 -16 41 -36 102 -46 135 -23 83 -126 293 -191 389 -142 210 -317 328 -571
386 -108 24 -331 55 -352 48 -3 0 -21 -3 -40 -5z m-1046 -3513 c47 -18 118
-93 147 -155 38 -85 47 -125 64 -282 26 -237 27 -289 16 -643 -6 -190 -16
-520 -21 -735 -14 -592 -54 -1502 -70 -1625 -5 -36 -14 -113 -20 -172 -6 -59
-17 -126 -26 -150 -8 -23 -21 -82 -29 -130 -38 -234 -124 -415 -274 -573 -112
-118 -201 -185 -342 -256 -89 -44 -109 -47 -133 -20 -16 17 -16 42 -7 332 6
173 15 487 21 699 19 696 30 1013 40 1160 5 80 16 393 25 695 8 303 19 685 25
850 5 165 13 415 16 555 7 270 11 295 59 340 24 22 208 95 280 109 57 12 199
13 229 1z"/>
    <path d="M73040 43320 c-19 -11 -51 -27 -70 -35 -19 -8 -62 -29 -95 -45 -33
-16 -121 -57 -195 -91 -74 -33 -148 -69 -165 -79 -16 -10 -48 -23 -70 -30 -22
-7 -69 -27 -105 -46 -105 -54 -275 -134 -284 -134 -4 0 -20 -9 -35 -19 -15
-11 -52 -29 -82 -41 -51 -20 -113 -48 -274 -125 -38 -19 -194 -90 -345 -160
-337 -154 -352 -162 -570 -268 -96 -47 -212 -102 -258 -123 -133 -60 -128 -47
-136 -340 -3 -137 -13 -429 -21 -649 -14 -358 -25 -762 -55 -1965 -5 -201 -11
-399 -15 -440 -9 -127 -25 -688 -35 -1240 -10 -549 -32 -1349 -49 -1750 -6
-129 -15 -426 -20 -660 -30 -1187 -36 -1425 -66 -2265 -8 -231 -19 -665 -25
-965 -6 -300 -17 -736 -25 -970 -8 -234 -19 -555 -25 -715 -5 -159 -12 -423
-15 -585 -6 -319 -19 -837 -35 -1425 -11 -402 -33 -823 -56 -1088 -7 -92 -14
-197 -14 -233 0 -36 -7 -97 -15 -137 -8 -40 -25 -131 -39 -204 -28 -152 -88
-298 -163 -396 -84 -109 -221 -197 -306 -197 -62 0 -122 58 -163 156 -63 150
-67 1013 -14 2809 6 193 15 535 20 760 5 226 12 451 15 500 13 218 26 697 40
1440 8 440 22 949 30 1130 16 381 30 838 45 1525 6 267 18 699 25 960 33 1078
48 1663 65 2530 6 278 15 583 21 678 12 209 35 991 50 1717 6 292 19 748 28
1015 13 358 15 492 7 510 -15 33 -77 40 -115 12 -24 -17 -115 -62 -291 -144
-41 -20 -147 -70 -235 -113 -151 -73 -190 -91 -395 -180 -46 -20 -89 -40 -95
-44 -5 -5 -71 -37 -145 -71 -74 -34 -229 -109 -345 -165 -115 -57 -234 -113
-264 -124 -29 -12 -112 -50 -185 -85 -72 -36 -178 -85 -236 -111 -58 -25 -136
-61 -175 -80 -38 -18 -127 -61 -198 -95 -94 -46 -131 -68 -141 -88 -10 -20
-15 -111 -20 -362 -10 -527 -25 -1083 -35 -1350 -12 -286 -26 -869 -41 -1650
-6 -305 -18 -775 -26 -1045 -8 -269 -19 -668 -24 -885 -5 -217 -14 -561 -20
-765 -5 -203 -15 -586 -20 -850 -6 -264 -15 -592 -20 -730 -18 -439 -30 -929
-45 -1768 -8 -450 -17 -868 -20 -930 -3 -62 -10 -301 -16 -532 -5 -231 -14
-546 -19 -700 -20 -591 -31 -1379 -32 -2370 -2 -1310 5 -1646 42 -1809 5 -24
19 -117 30 -207 11 -90 29 -195 40 -234 11 -38 29 -106 40 -150 22 -91 103
-333 149 -445 42 -101 117 -251 163 -327 103 -170 271 -356 412 -457 105 -75
352 -194 439 -212 39 -8 117 -26 172 -40 131 -34 416 -44 565 -21 146 23 372
74 431 98 30 12 77 28 104 36 28 8 70 26 95 38 25 13 73 31 105 40 59 18 319
146 426 211 31 19 60 34 65 34 15 0 338 212 454 298 242 180 515 433 723 672
120 138 315 384 387 490 19 28 49 70 65 93 27 37 84 120 166 242 14 22 37 60
49 85 13 25 33 59 45 75 13 17 34 53 48 80 13 28 42 84 64 125 77 144 163 315
163 325 0 5 18 48 40 95 45 99 81 184 121 293 16 42 36 91 44 107 9 17 29 68
44 113 42 119 96 266 115 312 9 22 27 78 40 125 14 47 36 119 50 160 34 103
96 322 111 395 7 33 24 100 39 149 14 48 30 118 36 155 5 36 19 100 30 141 31
122 50 231 59 357 5 65 15 132 21 148 7 17 16 84 20 150 5 66 20 298 34 515
14 217 35 523 46 680 25 361 28 420 40 785 6 165 15 374 20 465 16 278 39 996
50 1595 10 526 23 912 35 1010 8 62 33 951 45 1575 6 311 15 662 20 780 6 118
14 361 20 540 5 179 14 433 20 565 16 407 21 582 30 1120 9 521 18 807 45
1417 8 180 19 576 25 880 6 304 17 733 25 953 25 673 52 1496 60 1855 3 129 8
276 11 327 5 83 3 94 -15 112 -26 26 -28 26 -71 1z"/>
    <path d="M66064 40057 c-123 -63 -194 -96 -274 -129 -25 -10 -76 -33 -115 -52
-38 -18 -104 -49 -145 -68 -41 -20 -119 -56 -172 -82 -54 -25 -100 -46 -103
-46 -2 0 -80 -36 -172 -81 -288 -139 -309 -149 -318 -149 -4 0 -60 -25 -124
-56 -64 -31 -150 -72 -191 -91 -41 -19 -102 -47 -135 -63 -33 -16 -105 -49
-160 -75 -55 -26 -131 -62 -170 -80 -132 -62 -220 -103 -420 -194 -278 -128
-303 -141 -340 -175 l-32 -31 -12 -180 c-7 -99 -19 -232 -26 -295 -15 -126
-29 -315 -45 -600 -21 -359 -30 -476 -50 -625 -11 -82 -20 -187 -20 -233 0
-46 -4 -136 -10 -200 -5 -64 -14 -182 -20 -262 -6 -80 -20 -246 -30 -370 -11
-124 -24 -303 -30 -397 -5 -95 -14 -217 -19 -270 -19 -173 -42 -472 -56 -703
-8 -124 -23 -317 -34 -430 -21 -214 -46 -563 -56 -785 -3 -71 -13 -177 -21
-235 -8 -58 -19 -186 -25 -284 -5 -99 -12 -183 -15 -187 -2 -4 -8 -103 -14
-221 -5 -117 -20 -339 -34 -493 -14 -154 -30 -361 -36 -460 -5 -99 -12 -193
-15 -210 -3 -16 -9 -131 -15 -255 -6 -123 -15 -255 -20 -293 -9 -63 -16 -152
-50 -714 -6 -98 -22 -329 -35 -513 -14 -184 -29 -423 -35 -530 -6 -107 -13
-211 -15 -230 -3 -19 -10 -123 -15 -230 -6 -107 -17 -251 -25 -320 -8 -69 -19
-235 -25 -370 -6 -135 -13 -258 -15 -275 -15 -97 -48 -669 -65 -1145 -5 -151
-17 -336 -25 -410 -9 -74 -20 -195 -25 -269 -9 -147 -21 -178 -54 -142 -16 18
-18 65 -27 563 -5 299 -11 572 -14 608 -3 36 -10 315 -15 620 -14 733 -28
1217 -45 1539 -8 145 -13 266 -11 270 3 4 0 83 -5 176 -5 94 -13 391 -19 660
-10 477 -29 941 -50 1215 -5 74 -17 421 -26 770 -9 349 -20 714 -24 810 -22
459 -30 612 -39 700 -5 52 -12 262 -16 465 -7 388 -26 816 -50 1145 -8 107
-19 362 -25 565 -12 450 -27 802 -40 951 -6 61 -10 144 -10 185 0 41 -7 169
-15 284 -13 195 -21 391 -29 754 -3 136 -5 146 -26 163 -29 23 -34 22 -208
-63 -79 -39 -174 -83 -210 -99 -158 -66 -219 -94 -252 -115 -19 -12 -46 -26
-60 -30 -14 -4 -59 -25 -101 -46 -42 -22 -80 -39 -85 -39 -5 0 -76 -33 -159
-74 -82 -41 -197 -95 -255 -121 -58 -25 -150 -68 -205 -95 -55 -26 -136 -65
-180 -85 -86 -39 -107 -49 -378 -179 -98 -47 -182 -86 -188 -86 -5 0 -53 -21
-107 -46 -53 -25 -128 -61 -167 -79 -38 -18 -117 -54 -175 -80 -301 -135 -414
-197 -430 -235 -7 -17 -7 -67 0 -165 6 -77 15 -197 20 -268 5 -70 11 -131 14
-135 5 -8 31 -391 41 -607 3 -71 17 -247 30 -390 32 -345 42 -486 60 -819 8
-153 17 -282 20 -286 7 -12 32 -335 45 -580 10 -191 32 -504 60 -825 5 -60 16
-202 25 -315 8 -113 22 -288 30 -390 23 -295 34 -451 45 -665 6 -110 17 -256
25 -325 18 -162 40 -445 65 -835 7 -93 22 -294 36 -445 13 -151 26 -356 29
-455 6 -163 16 -305 45 -590 16 -157 38 -459 50 -700 7 -121 21 -314 31 -430
11 -115 28 -345 39 -510 10 -165 26 -367 34 -450 8 -82 22 -262 31 -400 9
-137 20 -291 25 -342 6 -50 10 -118 10 -150 0 -32 4 -94 10 -138 17 -144 40
-426 50 -640 10 -200 29 -438 50 -625 9 -84 17 -204 46 -688 8 -139 21 -319
29 -400 8 -81 20 -226 26 -322 9 -156 34 -466 60 -755 4 -55 17 -246 29 -425
11 -179 24 -381 30 -450 6 -69 15 -177 20 -240 16 -199 29 -379 40 -570 6
-102 17 -250 25 -330 8 -80 19 -219 25 -310 22 -363 31 -491 46 -635 8 -82 19
-193 24 -245 5 -52 14 -178 20 -280 14 -233 17 -247 40 -260 20 -11 13 -14
238 106 94 50 139 75 452 244 264 143 366 197 445 237 28 14 61 33 75 43 14
10 81 47 150 83 69 36 168 88 220 117 52 29 118 64 145 77 28 14 61 33 75 43
14 9 88 50 165 90 77 40 172 90 210 110 39 20 129 67 200 104 72 38 155 83
185 101 48 28 302 165 385 207 17 9 75 39 130 68 55 29 123 65 151 80 28 15
65 36 81 48 17 12 41 26 55 31 13 5 76 37 139 71 150 82 229 125 314 170 113
59 209 112 220 120 12 9 120 68 223 120 131 67 146 91 161 250 23 247 40 439
46 529 3 52 12 124 19 160 8 36 17 111 20 166 4 55 11 145 16 200 5 55 14 170
21 255 6 85 17 189 25 230 16 83 39 307 54 535 6 83 19 218 30 300 11 83 24
213 30 290 6 77 15 172 20 210 5 39 9 97 10 130 0 33 8 105 19 160 10 55 22
145 25 200 22 322 48 619 61 680 7 39 16 111 19 160 9 135 34 403 61 655 13
124 29 286 35 360 24 316 32 388 46 450 9 36 20 126 25 200 20 310 40 544 59
690 10 85 24 211 29 280 6 69 15 166 20 215 36 318 51 474 56 575 4 63 13 164
21 223 8 59 14 132 14 161 0 30 9 96 19 147 10 52 22 146 25 209 16 269 39
522 61 665 8 50 17 137 20 195 3 58 12 161 20 230 40 351 56 510 65 660 6 91
15 188 20 215 5 28 14 107 20 177 5 70 14 158 20 195 5 37 14 145 20 238 6 94
15 201 21 239 26 189 51 426 59 557 5 80 13 172 19 205 5 32 13 93 16 134 4
41 13 125 21 187 7 61 20 209 29 327 8 119 19 236 24 259 5 23 12 87 16 142 3
55 11 130 16 167 5 37 13 139 19 228 6 88 17 211 26 273 18 136 39 342 54 537
6 80 20 217 30 305 11 88 25 223 30 300 6 77 13 147 15 155 3 8 9 87 14 175 6
88 19 203 30 255 10 52 24 167 31 255 32 446 40 534 49 577 6 26 15 103 21
170 5 68 17 193 25 278 8 85 26 281 40 435 14 154 32 343 40 420 8 77 17 172
21 210 3 39 14 120 24 180 10 61 21 171 25 245 10 230 35 519 51 594 8 39 19
132 24 206 5 74 14 169 19 210 5 41 12 119 16 173 11 152 -7 159 -191 64z"/>
    <path d="M55650 35413 c-156 -18 -460 -79 -559 -112 -64 -22 -161 -53 -216
-71 -55 -18 -127 -47 -160 -65 -33 -18 -71 -36 -85 -40 -58 -17 -361 -165
-441 -215 -31 -19 -89 -53 -129 -75 -116 -65 -406 -266 -520 -361 -41 -35
-131 -109 -200 -166 -308 -253 -689 -669 -932 -1017 -76 -107 -245 -359 -293
-436 -17 -27 -52 -81 -77 -120 -71 -110 -288 -518 -288 -542 0 -3 -32 -71 -70
-150 -39 -80 -81 -172 -94 -206 -13 -34 -35 -89 -48 -122 -61 -144 -72 -175
-99 -253 -15 -46 -41 -118 -57 -160 -45 -116 -175 -535 -192 -617 -6 -27 -23
-95 -39 -150 -41 -141 -88 -334 -128 -520 -51 -242 -60 -299 -83 -497 -11
-101 -25 -207 -30 -237 -17 -94 -64 -738 -80 -1096 -6 -121 -15 -274 -20 -340
-5 -66 -14 -340 -20 -610 -5 -269 -15 -629 -20 -800 -27 -825 -36 -1390 -60
-3760 -5 -506 -14 -1284 -20 -1730 -22 -1752 -7 -3297 40 -3996 13 -188 71
-597 110 -771 16 -75 30 -143 30 -151 0 -23 103 -346 153 -479 48 -130 200
-415 305 -573 92 -140 125 -179 256 -310 199 -198 326 -282 566 -375 70 -28
145 -48 225 -61 66 -10 154 -25 195 -32 41 -6 152 -12 245 -12 155 1 184 4
320 34 83 18 188 46 235 61 47 16 123 39 170 53 83 24 416 155 455 179 25 15
149 80 230 120 33 17 67 36 76 44 9 8 40 27 70 43 157 82 252 144 523 341 111
81 396 329 625 545 138 131 433 469 576 662 36 48 78 103 92 122 15 19 54 76
88 126 34 51 71 105 82 121 54 79 113 173 113 180 0 5 15 31 33 59 108 162
246 413 337 610 46 99 109 232 146 310 13 28 35 80 48 117 14 36 31 77 39 90
8 13 23 48 32 78 10 30 25 69 33 85 20 38 83 217 128 364 19 63 41 126 49 141
7 14 20 53 29 85 8 33 31 108 51 167 19 59 35 114 35 122 0 9 13 57 30 108 16
51 36 127 45 168 8 41 28 127 45 190 28 109 102 507 114 615 16 141 38 316 46
365 18 104 40 366 50 609 6 134 13 247 15 251 10 17 36 538 54 1105 12 347 26
774 31 950 17 507 39 1495 50 2175 6 344 14 897 20 1230 5 333 12 641 15 685
7 84 17 759 35 2205 12 897 1 2199 -20 2495 -56 799 -83 977 -219 1470 -26 94
-89 266 -146 400 -26 61 -57 134 -70 163 -72 169 -260 456 -410 627 -64 74
-227 216 -315 276 -87 60 -237 140 -334 178 -88 35 -312 85 -451 101 -87 9
-292 11 -365 3z m-958 -3653 c41 -12 124 -95 151 -152 37 -78 73 -426 86 -826
12 -369 1 -1294 -39 -3192 -6 -261 -15 -884 -20 -1385 -5 -500 -12 -1038 -15
-1195 -3 -157 -10 -566 -15 -910 -5 -344 -14 -767 -20 -940 -5 -173 -14 -718
-20 -1210 -17 -1572 -32 -2215 -60 -2520 -5 -58 -17 -224 -25 -370 -23 -381
-71 -644 -145 -805 -76 -163 -177 -275 -328 -364 -58 -35 -84 -44 -135 -48
-42 -4 -72 -1 -88 7 -98 52 -150 140 -173 290 -28 179 -38 685 -33 1640 5 965
19 2270 37 3330 6 349 13 781 15 960 3 179 9 503 15 720 9 383 18 1021 40
2900 6 498 15 1047 20 1220 6 173 10 405 10 515 0 190 7 386 31 810 20 378 30
501 44 585 8 47 24 146 36 220 11 74 29 155 41 180 11 25 28 69 39 99 29 81
123 224 198 297 122 121 249 172 353 144z"/>
  </g>
</svg>
