<?xml version="1.0" encoding="UTF-8" standalone="no"?>
<svg xmlns="http://www.w3.org/2000/svg" 
     viewBox="0 0 5294 5262"
     fill="currentColor"
     role="img"
     aria-label="MovUP">
  <title>MovUP</title>
  <path fill-rule="evenodd" d="M4274.0 5062.5 L3434.5 4768.0 L3276.0 3996.5 L2453.0 4423.5 L1752.5 4166.0 L1606.0 3464.5 L879.0 3860.5 L200.5 3573.0 L1233.0 600.5 L2053.0 199.5 L2605.0 389.5 L2825.0 1611.5 L2969.0 1213.5 L3772.0 823.5 L3798.0 818.5 L4423.5 1043.0 L5094.5 4627.0 L4274.0 5062.5 Z M1839.5 793.0 L2592.5 411.0 L2048.0 231.5 L1274.5 609.0 L1839.5 793.0 Z M2219.5 3302.0 L2807.5 1668.0 L2589.0 450.5 L1853.5 820.0 L2219.5 3302.0 Z M3585.5 1441.0 L4379.5 1054.0 L3789.0 844.5 L3004.5 1226.0 L3585.5 1441.0 Z M4279.5 5029.0 L5070.5 4609.0 L4404.0 1076.5 L3606.5 1465.0 L4279.5 5029.0 Z M903.5 3815.0 L1600.5 3432.0 L1414.0 2524.5 L903.5 3815.0 Z M2489.5 4376.0 L3270.5 3965.0 L3098.0 3114.5 L2489.5 4376.0 Z"/>
</svg>
