<?xml version="1.0" encoding="UTF-8" standalone="no"?>
<svg xmlns="http://www.w3.org/2000/svg" 
     viewBox="0 0 9392.000000 6000.000000"
     fill="currentColor"
     role="img"
     aria-label="MovUP — Savoir Faire · Faire Savoir">
  <title>MovUP — Savoir Faire · Faire Savoir</title>
  <g transform="translate(0.000000,6000.000000) scale(0.100000,-0.100000)">
        <path fill-rule="evenodd" d="M43950.0 4155.0 L35555.0 7100.0 L33970.0 14815.0 L25740.0 10545.0 L18735.0 13120.0 L17270.0 20135.0 L10000.0 16175.0 L3215.0 19050.0 L13540.0 48775.0 L21740.0 52785.0 L27260.0 50885.0 L29460.0 38665.0 L30900.0 42645.0 L38930.0 46545.0 L39190.0 46595.0 L45445.0 44350.0 L52155.0 8510.0 L43950.0 4155.0 Z M19605.0 46850.0 L27135.0 50670.0 L21690.0 52465.0 L13955.0 48690.0 L19605.0 46850.0 Z M23405.0 21760.0 L29285.0 38100.0 L27100.0 50275.0 L19745.0 46580.0 L23405.0 21760.0 Z M37065.0 40370.0 L45005.0 44240.0 L39100.0 46335.0 L31255.0 42520.0 L37065.0 40370.0 Z M44005.0 4490.0 L51915.0 8690.0 L45250.0 44015.0 L37275.0 40130.0 L44005.0 4490.0 Z M10245.0 16630.0 L17215.0 20460.0 L15350.0 29535.0 L10245.0 16630.0 Z M26105.0 11020.0 L33915.0 15130.0 L32190.0 23635.0 L26105.0 11020.0 Z"/>
    <path d="M79560 47743 c-19 -2 -119 -19 -221 -38 -213 -40 -402 -93 -654 -184
-218 -79 -275 -100 -322 -124 -26 -14 -59 -28 -73 -32 -14 -4 -97 -42 -185
-85 -186 -90 -339 -160 -349 -160 -4 0 -73 -32 -154 -71 -81 -39 -210 -99
-287 -134 -77 -34 -153 -70 -170 -78 -16 -9 -88 -44 -160 -78 -184 -87 -213
-101 -365 -170 -74 -34 -146 -69 -160 -79 -14 -10 -36 -21 -50 -25 -14 -4 -70
-28 -125 -55 -115 -56 -248 -118 -355 -167 -41 -19 -102 -47 -135 -63 -33 -16
-103 -48 -155 -73 -52 -24 -116 -54 -142 -66 -26 -12 -62 -39 -81 -60 l-34
-37 -6 -155 c-4 -85 -11 -329 -17 -544 -12 -492 -39 -1313 -60 -1815 -5 -124
-14 -448 -20 -720 -10 -458 -26 -955 -50 -1495 -9 -205 -16 -439 -40 -1420 -5
-209 -16 -531 -24 -715 -9 -184 -20 -528 -26 -765 -5 -236 -12 -464 -15 -505
-3 -41 -10 -271 -15 -510 -6 -239 -17 -613 -25 -830 -18 -487 -22 -588 -40
-1275 -32 -1177 -36 -1320 -50 -1615 -8 -168 -17 -417 -20 -555 -24 -1030 -49
-1845 -65 -2135 -5 -102 -14 -396 -20 -655 -17 -787 -45 -1667 -60 -1899 -18
-274 -24 -659 -11 -684 16 -31 45 -27 121 15 36 20 101 55 145 78 146 76 197
104 208 113 7 6 41 25 77 44 36 19 79 42 95 51 17 9 48 25 70 35 50 24 197
102 210 112 6 4 71 39 145 78 74 38 169 89 210 113 41 23 129 70 195 104 66
34 172 90 235 125 63 34 180 96 260 137 80 42 152 81 160 88 8 7 40 25 70 39
30 14 96 48 145 76 50 27 114 61 144 75 129 62 151 97 151 247 1 56 5 175 10
263 15 261 29 655 45 1255 22 851 34 1216 45 1420 15 265 28 682 40 1240 6
267 13 496 15 510 3 14 12 237 20 495 8 259 20 589 25 735 12 299 29 951 30
1079 l0 84 39 37 c24 23 111 72 232 132 237 117 249 123 374 188 55 29 118 62
140 73 49 24 119 66 205 122 36 23 99 61 140 85 41 24 86 50 100 60 85 58 142
99 196 144 33 28 105 87 158 131 269 219 612 620 792 925 15 25 35 58 46 73
18 26 184 353 242 477 24 53 66 167 107 295 73 224 93 293 114 396 13 64 29
129 35 144 6 16 17 77 25 135 8 58 19 119 25 136 7 16 16 70 20 119 5 50 18
128 29 175 10 47 22 136 25 198 4 63 16 159 27 215 13 65 24 175 29 302 5 110
14 265 19 345 6 80 13 192 16 250 3 58 15 220 25 360 12 152 24 461 30 765 6
281 19 697 30 925 22 452 43 1784 29 1885 -4 33 -8 139 -9 235 -1 96 -6 198
-11 225 -5 28 -13 111 -18 185 -10 152 -25 282 -46 385 -40 198 -69 317 -95
385 -16 41 -36 102 -46 135 -23 83 -126 293 -191 389 -142 210 -317 328 -571
386 -108 24 -331 55 -352 48 -3 0 -21 -3 -40 -5z m-1046 -3513 c47 -18 118
-93 147 -155 38 -85 47 -125 64 -282 26 -237 27 -289 16 -643 -6 -190 -16
-520 -21 -735 -14 -592 -54 -1502 -70 -1625 -5 -36 -14 -113 -20 -172 -6 -59
-17 -126 -26 -150 -8 -23 -21 -82 -29 -130 -38 -234 -124 -415 -274 -573 -112
-118 -201 -185 -342 -256 -89 -44 -109 -47 -133 -20 -16 17 -16 42 -7 332 6
173 15 487 21 699 19 696 30 1013 40 1160 5 80 16 393 25 695 8 303 19 685 25
850 5 165 13 415 16 555 7 270 11 295 59 340 24 22 208 95 280 109 57 12 199
13 229 1z"/>
    <path d="M74250 45480 c-19 -11 -51 -27 -70 -35 -19 -8 -62 -29 -95 -45 -33
-16 -121 -57 -195 -91 -74 -33 -148 -69 -165 -79 -16 -10 -48 -23 -70 -30 -22
-7 -69 -27 -105 -46 -105 -54 -275 -134 -284 -134 -4 0 -20 -9 -35 -19 -15
-11 -52 -29 -82 -41 -51 -20 -113 -48 -274 -125 -38 -19 -194 -90 -345 -160
-337 -154 -352 -162 -570 -268 -96 -47 -212 -102 -258 -123 -133 -60 -128 -47
-136 -340 -3 -137 -13 -429 -21 -649 -14 -358 -25 -762 -55 -1965 -5 -201 -11
-399 -15 -440 -9 -127 -25 -688 -35 -1240 -10 -549 -32 -1349 -49 -1750 -6
-129 -15 -426 -20 -660 -30 -1187 -36 -1425 -66 -2265 -8 -231 -19 -665 -25
-965 -6 -300 -17 -736 -25 -970 -8 -234 -19 -555 -25 -715 -5 -159 -12 -423
-15 -585 -6 -319 -19 -837 -35 -1425 -11 -402 -33 -823 -56 -1088 -7 -92 -14
-197 -14 -233 0 -36 -7 -97 -15 -137 -8 -40 -25 -131 -39 -204 -28 -152 -88
-298 -163 -396 -84 -109 -221 -197 -306 -197 -62 0 -122 58 -163 156 -63 150
-67 1013 -14 2809 6 193 15 535 20 760 5 226 12 451 15 500 13 218 26 697 40
1440 8 440 22 949 30 1130 16 381 30 838 45 1525 6 267 18 699 25 960 33 1078
48 1663 65 2530 6 278 15 583 21 678 12 209 35 991 50 1717 6 292 19 748 28
1015 13 358 15 492 7 510 -15 33 -77 40 -115 12 -24 -17 -115 -62 -291 -144
-41 -20 -147 -70 -235 -113 -151 -73 -190 -91 -395 -180 -46 -20 -89 -40 -95
-44 -5 -5 -71 -37 -145 -71 -74 -34 -229 -109 -345 -165 -115 -57 -234 -113
-264 -124 -29 -12 -112 -50 -185 -85 -72 -36 -178 -85 -236 -111 -58 -25 -136
-61 -175 -80 -38 -18 -127 -61 -198 -95 -94 -46 -131 -68 -141 -88 -10 -20
-15 -111 -20 -362 -10 -527 -25 -1083 -35 -1350 -12 -286 -26 -869 -41 -1650
-6 -305 -18 -775 -26 -1045 -8 -269 -19 -668 -24 -885 -5 -217 -14 -561 -20
-765 -5 -203 -15 -586 -20 -850 -6 -264 -15 -592 -20 -730 -18 -439 -30 -929
-45 -1768 -8 -450 -17 -868 -20 -930 -3 -62 -10 -301 -16 -532 -5 -231 -14
-546 -19 -700 -20 -591 -31 -1379 -32 -2370 -2 -1310 5 -1646 42 -1809 5 -24
19 -117 30 -207 11 -90 29 -195 40 -234 11 -38 29 -106 40 -150 22 -91 103
-333 149 -445 42 -101 117 -251 163 -327 103 -170 271 -356 412 -457 105 -75
352 -194 439 -212 39 -8 117 -26 172 -40 131 -34 416 -44 565 -21 146 23 372
74 431 98 30 12 77 28 104 36 28 8 70 26 95 38 25 13 73 31 105 40 59 18 319
146 426 211 31 19 60 34 65 34 15 0 338 212 454 298 242 180 515 433 723 672
120 138 315 384 387 490 19 28 49 70 65 93 27 37 84 120 166 242 14 22 37 60
49 85 13 25 33 59 45 75 13 17 34 53 48 80 13 28 42 84 64 125 77 144 163 315
163 325 0 5 18 48 40 95 45 99 81 184 121 293 16 42 36 91 44 107 9 17 29 68
44 113 42 119 96 266 115 312 9 22 27 78 40 125 14 47 36 119 50 160 34 103
96 322 111 395 7 33 24 100 39 149 14 48 30 118 36 155 5 36 19 100 30 141 31
122 50 231 59 357 5 65 15 132 21 148 7 17 16 84 20 150 5 66 20 298 34 515
14 217 35 523 46 680 25 361 28 420 40 785 6 165 15 374 20 465 16 278 39 996
50 1595 10 526 23 912 35 1010 8 62 33 951 45 1575 6 311 15 662 20 780 6 118
14 361 20 540 5 179 14 433 20 565 16 407 21 582 30 1120 9 521 18 807 45
1417 8 180 19 576 25 880 6 304 17 733 25 953 25 673 52 1496 60 1855 3 129 8
276 11 327 5 83 3 94 -15 112 -26 26 -28 26 -71 1z"/>
    <path d="M67274 42217 c-123 -63 -194 -96 -274 -129 -25 -10 -76 -33 -115 -52
-38 -18 -104 -49 -145 -68 -41 -20 -119 -56 -172 -82 -54 -25 -100 -46 -103
-46 -2 0 -80 -36 -172 -81 -288 -139 -309 -149 -318 -149 -4 0 -60 -25 -124
-56 -64 -31 -150 -72 -191 -91 -41 -19 -102 -47 -135 -63 -33 -16 -105 -49
-160 -75 -55 -26 -131 -62 -170 -80 -132 -62 -220 -103 -420 -194 -278 -128
-303 -141 -340 -175 l-32 -31 -12 -180 c-7 -99 -19 -232 -26 -295 -15 -126
-29 -315 -45 -600 -21 -359 -30 -476 -50 -625 -11 -82 -20 -187 -20 -233 0
-46 -4 -136 -10 -200 -5 -64 -14 -182 -20 -262 -6 -80 -20 -246 -30 -370 -11
-124 -24 -303 -30 -397 -5 -95 -14 -217 -19 -270 -19 -173 -42 -472 -56 -703
-8 -124 -23 -317 -34 -430 -21 -214 -46 -563 -56 -785 -3 -71 -13 -177 -21
-235 -8 -58 -19 -186 -25 -284 -5 -99 -12 -183 -15 -187 -2 -4 -8 -103 -14
-221 -5 -117 -20 -339 -34 -493 -14 -154 -30 -361 -36 -460 -5 -99 -12 -193
-15 -210 -3 -16 -9 -131 -15 -255 -6 -123 -15 -255 -20 -293 -9 -63 -16 -152
-50 -714 -6 -98 -22 -329 -35 -513 -14 -184 -29 -423 -35 -530 -6 -107 -13
-211 -15 -230 -3 -19 -10 -123 -15 -230 -6 -107 -17 -251 -25 -320 -8 -69 -19
-235 -25 -370 -6 -135 -13 -258 -15 -275 -15 -97 -48 -669 -65 -1145 -5 -151
-17 -336 -25 -410 -9 -74 -20 -195 -25 -269 -9 -147 -21 -178 -54 -142 -16 18
-18 65 -27 563 -5 299 -11 572 -14 608 -3 36 -10 315 -15 620 -14 733 -28
1217 -45 1539 -8 145 -13 266 -11 270 3 4 0 83 -5 176 -5 94 -13 391 -19 660
-10 477 -29 941 -50 1215 -5 74 -17 421 -26 770 -9 349 -20 714 -24 810 -22
459 -30 612 -39 700 -5 52 -12 262 -16 465 -7 388 -26 816 -50 1145 -8 107
-19 362 -25 565 -12 450 -27 802 -40 951 -6 61 -10 144 -10 185 0 41 -7 169
-15 284 -13 195 -21 391 -29 754 -3 136 -5 146 -26 163 -29 23 -34 22 -208
-63 -79 -39 -174 -83 -210 -99 -158 -66 -219 -94 -252 -115 -19 -12 -46 -26
-60 -30 -14 -4 -59 -25 -101 -46 -42 -22 -80 -39 -85 -39 -5 0 -76 -33 -159
-74 -82 -41 -197 -95 -255 -121 -58 -25 -150 -68 -205 -95 -55 -26 -136 -65
-180 -85 -86 -39 -107 -49 -378 -179 -98 -47 -182 -86 -188 -86 -5 0 -53 -21
-107 -46 -53 -25 -128 -61 -167 -79 -38 -18 -117 -54 -175 -80 -301 -135 -414
-197 -430 -235 -7 -17 -7 -67 0 -165 6 -77 15 -197 20 -268 5 -70 11 -131 14
-135 5 -8 31 -391 41 -607 3 -71 17 -247 30 -390 32 -345 42 -486 60 -819 8
-153 17 -282 20 -286 7 -12 32 -335 45 -580 10 -191 32 -504 60 -825 5 -60 16
-202 25 -315 8 -113 22 -288 30 -390 23 -295 34 -451 45 -665 6 -110 17 -256
25 -325 18 -162 40 -445 65 -835 7 -93 22 -294 36 -445 13 -151 26 -356 29
-455 6 -163 16 -305 45 -590 16 -157 38 -459 50 -700 7 -121 21 -314 31 -430
11 -115 28 -345 39 -510 10 -165 26 -367 34 -450 8 -82 22 -262 31 -400 9
-137 20 -291 25 -342 6 -50 10 -118 10 -150 0 -32 4 -94 10 -138 17 -144 40
-426 50 -640 10 -200 29 -438 50 -625 9 -84 17 -204 46 -688 8 -139 21 -319
29 -400 8 -81 20 -226 26 -322 9 -156 34 -466 60 -755 4 -55 17 -246 29 -425
11 -179 24 -381 30 -450 6 -69 15 -177 20 -240 16 -199 29 -379 40 -570 6
-102 17 -250 25 -330 8 -80 19 -219 25 -310 22 -363 31 -491 46 -635 8 -82 19
-193 24 -245 5 -52 14 -178 20 -280 14 -233 17 -247 40 -260 20 -11 13 -14
238 106 94 50 139 75 452 244 264 143 366 197 445 237 28 14 61 33 75 43 14
10 81 47 150 83 69 36 168 88 220 117 52 29 118 64 145 77 28 14 61 33 75 43
14 9 88 50 165 90 77 40 172 90 210 110 39 20 129 67 200 104 72 38 155 83
185 101 48 28 302 165 385 207 17 9 75 39 130 68 55 29 123 65 151 80 28 15
65 36 81 48 17 12 41 26 55 31 13 5 76 37 139 71 150 82 229 125 314 170 113
59 209 112 220 120 12 9 120 68 223 120 131 67 146 91 161 250 23 247 40 439
46 529 3 52 12 124 19 160 8 36 17 111 20 166 4 55 11 145 16 200 5 55 14 170
21 255 6 85 17 189 25 230 16 83 39 307 54 535 6 83 19 218 30 300 11 83 24
213 30 290 6 77 15 172 20 210 5 39 9 97 10 130 0 33 8 105 19 160 10 55 22
145 25 200 22 322 48 619 61 680 7 39 16 111 19 160 9 135 34 403 61 655 13
124 29 286 35 360 24 316 32 388 46 450 9 36 20 126 25 200 20 310 40 544 59
690 10 85 24 211 29 280 6 69 15 166 20 215 36 318 51 474 56 575 4 63 13 164
21 223 8 59 14 132 14 161 0 30 9 96 19 147 10 52 22 146 25 209 16 269 39
522 61 665 8 50 17 137 20 195 3 58 12 161 20 230 40 351 56 510 65 660 6 91
15 188 20 215 5 28 14 107 20 177 5 70 14 158 20 195 5 37 14 145 20 238 6 94
15 201 21 239 26 189 51 426 59 557 5 80 13 172 19 205 5 32 13 93 16 134 4
41 13 125 21 187 7 61 20 209 29 327 8 119 19 236 24 259 5 23 12 87 16 142 3
55 11 130 16 167 5 37 13 139 19 228 6 88 17 211 26 273 18 136 39 342 54 537
6 80 20 217 30 305 11 88 25 223 30 300 6 77 13 147 15 155 3 8 9 87 14 175 6
88 19 203 30 255 10 52 24 167 31 255 32 446 40 534 49 577 6 26 15 103 21
170 5 68 17 193 25 278 8 85 26 281 40 435 14 154 32 343 40 420 8 77 17 172
21 210 3 39 14 120 24 180 10 61 21 171 25 245 10 230 35 519 51 594 8 39 19
132 24 206 5 74 14 169 19 210 5 41 12 119 16 173 11 152 -7 159 -191 64z"/>
    <path d="M56860 37573 c-156 -18 -460 -79 -559 -112 -64 -22 -161 -53 -216
-71 -55 -18 -127 -47 -160 -65 -33 -18 -71 -36 -85 -40 -58 -17 -361 -165
-441 -215 -31 -19 -89 -53 -129 -75 -116 -65 -406 -266 -520 -361 -41 -35
-131 -109 -200 -166 -308 -253 -689 -669 -932 -1017 -76 -107 -245 -359 -293
-436 -17 -27 -52 -81 -77 -120 -71 -110 -288 -518 -288 -542 0 -3 -32 -71 -70
-150 -39 -80 -81 -172 -94 -206 -13 -34 -35 -89 -48 -122 -61 -144 -72 -175
-99 -253 -15 -46 -41 -118 -57 -160 -45 -116 -175 -535 -192 -617 -6 -27 -23
-95 -39 -150 -41 -141 -88 -334 -128 -520 -51 -242 -60 -299 -83 -497 -11
-101 -25 -207 -30 -237 -17 -94 -64 -738 -80 -1096 -6 -121 -15 -274 -20 -340
-5 -66 -14 -340 -20 -610 -5 -269 -15 -629 -20 -800 -27 -825 -36 -1390 -60
-3760 -5 -506 -14 -1284 -20 -1730 -22 -1752 -7 -3297 40 -3996 13 -188 71
-597 110 -771 16 -75 30 -143 30 -151 0 -23 103 -346 153 -479 48 -130 200
-415 305 -573 92 -140 125 -179 256 -310 199 -198 326 -282 566 -375 70 -28
145 -48 225 -61 66 -10 154 -25 195 -32 41 -6 152 -12 245 -12 155 1 184 4
320 34 83 18 188 46 235 61 47 16 123 39 170 53 83 24 416 155 455 179 25 15
149 80 230 120 33 17 67 36 76 44 9 8 40 27 70 43 157 82 252 144 523 341 111
81 396 329 625 545 138 131 433 469 576 662 36 48 78 103 92 122 15 19 54 76
88 126 34 51 71 105 82 121 54 79 113 173 113 180 0 5 15 31 33 59 108 162
246 413 337 610 46 99 109 232 146 310 13 28 35 80 48 117 14 36 31 77 39 90
8 13 23 48 32 78 10 30 25 69 33 85 20 38 83 217 128 364 19 63 41 126 49 141
7 14 20 53 29 85 8 33 31 108 51 167 19 59 35 114 35 122 0 9 13 57 30 108 16
51 36 127 45 168 8 41 28 127 45 190 28 109 102 507 114 615 16 141 38 316 46
365 18 104 40 366 50 609 6 134 13 247 15 251 10 17 36 538 54 1105 12 347 26
774 31 950 17 507 39 1495 50 2175 6 344 14 897 20 1230 5 333 12 641 15 685
7 84 17 759 35 2205 12 897 1 2199 -20 2495 -56 799 -83 977 -219 1470 -26 94
-89 266 -146 400 -26 61 -57 134 -70 163 -72 169 -260 456 -410 627 -64 74
-227 216 -315 276 -87 60 -237 140 -334 178 -88 35 -312 85 -451 101 -87 9
-292 11 -365 3z m-958 -3653 c41 -12 124 -95 151 -152 37 -78 73 -426 86 -826
12 -369 1 -1294 -39 -3192 -6 -261 -15 -884 -20 -1385 -5 -500 -12 -1038 -15
-1195 -3 -157 -10 -566 -15 -910 -5 -344 -14 -767 -20 -940 -5 -173 -14 -718
-20 -1210 -17 -1572 -32 -2215 -60 -2520 -5 -58 -17 -224 -25 -370 -23 -381
-71 -644 -145 -805 -76 -163 -177 -275 -328 -364 -58 -35 -84 -44 -135 -48
-42 -4 -72 -1 -88 7 -98 52 -150 140 -173 290 -28 179 -38 685 -33 1640 5 965
19 2270 37 3330 6 349 13 781 15 960 3 179 9 503 15 720 9 383 18 1021 40
2900 6 498 15 1047 20 1220 6 173 10 405 10 515 0 190 7 386 31 810 20 378 30
501 44 585 8 47 24 146 36 220 11 74 29 155 41 180 11 25 28 69 39 99 29 81
123 224 198 297 122 121 249 172 353 144z"/>
    <path d="M81877 29986 c-43 -25 -106 -59 -140 -76 -76 -38 -155 -81 -210 -113
-23 -14 -94 -52 -157 -84 -63 -33 -158 -84 -210 -113 -52 -29 -151 -82 -220
-117 -69 -36 -130 -70 -137 -75 -6 -5 -40 -24 -75 -42 -163 -85 -488 -261
-528 -286 -25 -15 -63 -37 -85 -48 -22 -11 -80 -41 -130 -67 -49 -27 -121 -65
-160 -85 -38 -20 -108 -58 -155 -84 -47 -26 -143 -78 -215 -116 -71 -37 -173
-91 -225 -120 -117 -64 -198 -107 -364 -194 -71 -37 -147 -79 -167 -92 -21
-13 -42 -24 -47 -24 -4 0 -35 -16 -67 -36 -54 -32 -158 -88 -370 -199 -44 -23
-152 -82 -240 -130 -88 -49 -196 -107 -240 -130 -44 -23 -109 -58 -145 -77
-36 -20 -94 -51 -130 -70 -36 -20 -154 -83 -262 -142 -108 -58 -201 -106 -206
-106 -4 0 -29 -13 -54 -29 -26 -16 -102 -59 -170 -95 -68 -35 -233 -124 -368
-196 -135 -72 -301 -161 -370 -197 -69 -36 -129 -69 -135 -73 -5 -4 -77 -43
-160 -85 -82 -43 -161 -86 -175 -95 -14 -10 -43 -26 -65 -38 -22 -11 -116 -61
-210 -112 -93 -50 -226 -121 -295 -157 -69 -36 -141 -75 -160 -88 -33 -22
-232 -130 -370 -202 -36 -18 -100 -53 -143 -76 -43 -23 -198 -107 -345 -186
-147 -79 -292 -158 -322 -176 -30 -18 -109 -61 -175 -96 -189 -98 -348 -184
-485 -259 -112 -62 -209 -114 -265 -143 -22 -11 -174 -92 -337 -179 -164 -87
-301 -158 -305 -158 -5 0 -31 -15 -58 -34 -28 -18 -68 -42 -90 -53 -64 -32
-330 -173 -592 -314 -128 -68 -226 -121 -298 -159 -38 -20 -108 -58 -155 -84
-47 -26 -146 -79 -220 -118 -74 -39 -140 -75 -147 -80 -12 -9 -71 -41 -208
-113 -44 -23 -114 -61 -155 -85 -41 -24 -111 -62 -155 -85 -218 -113 -342
-179 -365 -195 -23 -15 -72 -42 -342 -184 -47 -25 -124 -66 -170 -92 -46 -26
-119 -66 -163 -89 -115 -59 -241 -127 -310 -165 -56 -31 -108 -59 -282 -151
-139 -74 -218 -117 -288 -155 -38 -21 -106 -57 -150 -80 -44 -23 -114 -60
-155 -82 -41 -22 -106 -56 -143 -75 -38 -20 -74 -40 -80 -46 -7 -5 -48 -28
-92 -51 -44 -23 -109 -58 -145 -77 -36 -20 -96 -52 -135 -73 -38 -21 -99 -53
-135 -73 -36 -19 -99 -53 -140 -75 -41 -22 -118 -64 -170 -92 -138 -76 -313
-171 -440 -237 -181 -96 -214 -114 -226 -124 -7 -5 -45 -27 -86 -48 -40 -21
-104 -55 -143 -76 -38 -21 -106 -56 -150 -79 -44 -23 -116 -61 -160 -85 -44
-24 -111 -60 -150 -80 -240 -125 -353 -186 -376 -202 -15 -10 -37 -23 -51 -28
-13 -5 -76 -37 -139 -71 -63 -35 -145 -79 -184 -100 -38 -20 -101 -54 -140
-75 -101 -54 -199 -107 -285 -153 -41 -21 -113 -61 -160 -87 -84 -47 -149 -82
-285 -155 -38 -20 -142 -77 -230 -125 -88 -48 -189 -103 -225 -122 -36 -18
-101 -54 -145 -78 -44 -24 -105 -56 -135 -70 -30 -15 -66 -35 -80 -44 -14 -10
-81 -47 -150 -83 -69 -36 -168 -89 -220 -118 -52 -29 -126 -69 -165 -90 -38
-20 -101 -54 -140 -75 -94 -51 -193 -104 -290 -155 -44 -24 -111 -60 -150 -80
-38 -21 -104 -56 -145 -78 -41 -22 -214 -115 -385 -207 -170 -92 -328 -176
-350 -187 -22 -10 -49 -24 -60 -30 -24 -14 -174 -97 -260 -143 -33 -17 -132
-71 -220 -120 -169 -93 -217 -118 -440 -234 -77 -41 -145 -78 -152 -83 -6 -5
-46 -27 -87 -48 -42 -22 -109 -57 -149 -78 -39 -21 -135 -71 -212 -111 -77
-41 -145 -78 -152 -83 -6 -5 -40 -24 -75 -42 -65 -35 -126 -68 -288 -156 -52
-29 -156 -84 -230 -122 -74 -39 -142 -76 -150 -83 -14 -11 -361 -197 -385
-206 -11 -4 -88 -47 -260 -144 -60 -34 -166 -92 -235 -128 -69 -36 -168 -89
-220 -118 -52 -28 -126 -68 -165 -88 -38 -21 -113 -60 -165 -87 -52 -28 -152
-82 -223 -120 -175 -95 -248 -134 -347 -186 -47 -25 -114 -61 -150 -80 -36
-19 -184 -99 -330 -177 -146 -79 -291 -158 -322 -177 -32 -19 -72 -40 -90 -47
-33 -12 -94 -45 -196 -106 -31 -18 -115 -64 -187 -101 -71 -37 -170 -90 -220
-117 -83 -46 -246 -133 -420 -224 -38 -20 -146 -78 -240 -129 -93 -51 -199
-108 -235 -127 -36 -19 -101 -54 -145 -78 -44 -25 -109 -60 -145 -78 -36 -19
-204 -110 -375 -202 -444 -240 -480 -260 -672 -359 -39 -21 -92 -55 -117 -77
-42 -37 -46 -45 -46 -85 0 -35 5 -47 25 -60 31 -20 76 -13 119 20 17 13 58 37
91 54 33 17 71 38 85 46 14 8 48 26 75 39 64 31 107 54 660 352 253 136 516
276 585 312 69 36 136 74 150 83 14 10 52 31 85 47 33 16 92 47 130 68 123 69
228 124 304 161 41 19 86 43 100 53 23 17 220 121 356 189 28 14 61 32 75 42
14 9 81 46 150 82 69 36 168 89 220 118 52 29 151 82 220 118 69 35 130 69
137 74 6 5 49 28 95 52 45 23 115 60 153 81 93 50 228 121 290 152 28 14 61
33 75 43 23 16 147 83 365 196 44 23 114 60 155 82 41 22 111 59 155 83 82 43
175 93 300 160 39 20 101 53 139 74 38 20 81 44 95 54 14 10 49 30 76 43 49
25 130 67 275 145 41 22 143 77 225 123 83 46 186 102 230 125 87 46 191 101
300 160 39 21 100 54 137 74 37 20 125 67 195 105 71 38 173 93 228 122 55 28
143 75 195 104 52 29 156 84 230 123 162 84 252 132 345 183 39 21 102 54 140
75 39 20 108 58 155 85 47 26 118 64 158 86 95 50 202 107 282 150 60 33 109
59 320 171 41 22 103 55 137 72 33 17 67 36 75 42 7 6 81 46 163 89 83 42 186
96 230 119 44 23 105 55 135 72 59 32 165 89 282 152 40 22 111 61 158 87 97
54 191 104 302 161 42 22 83 44 90 50 7 6 76 44 153 84 77 40 169 88 205 108
36 19 99 52 140 74 41 21 82 45 90 52 8 7 44 27 80 44 36 17 97 48 135 70 39
21 106 58 151 82 621 335 695 375 909 489 93 49 182 96 280 149 82 45 237 127
280 149 17 8 129 68 250 132 121 64 234 124 250 132 17 9 73 39 125 68 91 50
127 69 305 164 44 23 116 62 160 86 44 23 110 59 148 79 37 20 133 72 214 116
169 92 281 152 373 201 36 19 101 54 145 78 44 25 105 57 135 71 30 15 66 35
80 44 14 10 88 51 165 92 77 40 174 91 215 113 41 22 103 54 137 71 33 17 67
36 75 42 7 6 81 46 163 89 254 132 300 156 310 164 6 4 71 39 145 78 74 39
207 109 295 157 192 105 264 144 370 200 44 23 112 59 150 80 135 73 211 113
288 153 43 23 84 45 90 50 7 6 73 41 147 80 74 38 173 91 220 117 95 53 177
98 295 160 97 51 126 67 520 280 437 237 444 241 505 271 30 15 133 70 230
122 96 52 209 112 250 134 41 22 104 56 140 75 36 20 101 54 145 77 44 23 109
58 145 77 36 20 132 71 214 113 82 43 166 89 187 102 21 13 41 24 44 24 3 0
61 30 128 66 163 89 262 142 475 255 42 23 109 58 147 79 111 59 214 114 295
157 41 22 109 59 150 83 41 24 111 62 155 85 292 154 428 227 585 315 52 29
127 69 165 89 39 20 106 56 150 80 44 24 136 73 205 109 69 35 131 69 138 75
7 6 45 27 85 47 40 21 153 81 252 135 99 53 234 125 300 160 167 87 235 124
270 145 17 10 89 48 160 86 243 127 290 152 460 244 94 51 229 123 300 160
121 63 241 128 375 202 60 33 121 66 335 177 77 41 151 81 165 91 14 9 88 50
165 90 77 40 145 76 150 80 6 4 66 37 135 73 69 35 168 88 220 117 52 29 155
83 229 122 74 38 146 77 160 87 14 10 51 30 81 44 30 15 91 46 135 70 44 23
139 74 210 111 72 38 135 73 142 78 7 6 50 29 95 52 153 78 322 168 358 191
19 12 157 87 305 165 149 79 277 149 285 156 8 7 44 26 80 43 36 17 103 52
150 77 88 48 183 99 305 164 306 162 401 218 422 249 45 66 19 181 -40 181
-13 0 -57 -20 -100 -44z"/>
    <path d="M81750 28861 c-14 -5 -45 -18 -69 -30 -24 -13 -66 -30 -94 -38 -47
-14 -219 -94 -241 -112 -6 -5 -46 -27 -89 -50 -43 -22 -112 -59 -155 -81 -42
-23 -102 -55 -133 -70 -59 -30 -106 -77 -113 -113 -11 -55 -36 -544 -71 -1382
-8 -198 -22 -448 -29 -555 -8 -107 -20 -305 -26 -440 -6 -135 -15 -319 -20
-410 -5 -101 -4 -172 1 -182 13 -25 71 -24 93 1 10 11 45 33 79 51 62 31 162
85 275 148 96 54 99 64 112 382 23 574 42 986 46 1008 12 61 92 93 128 53 29
-32 33 -79 24 -252 -38 -748 -47 -994 -33 -1008 20 -20 63 -16 98 10 30 22 61
39 257 140 42 21 89 52 105 69 l30 31 7 220 c6 197 17 370 48 724 17 186 13
302 -10 350 -31 64 -83 115 -117 115 -33 0 -73 25 -73 45 0 8 27 42 60 76 71
73 147 206 160 281 19 110 44 429 44 588 1 149 -1 172 -23 235 -35 102 -45
118 -102 164 -44 35 -58 41 -98 40 -25 0 -57 -4 -71 -8z m-239 -658 c21 -28
21 -32 16 -248 -7 -247 -17 -302 -66 -364 -46 -57 -68 -68 -93 -44 -18 18 -18
29 -8 279 13 338 15 352 41 381 32 33 81 31 110 -4z"/>
    <path d="M80550 28251 c-14 -5 -45 -19 -68 -32 -159 -88 -203 -111 -249 -133
-61 -29 -131 -78 -149 -104 -8 -12 -16 -101 -24 -267 -6 -138 -13 -257 -15
-265 -6 -23 -33 -512 -40 -720 -10 -313 -25 -632 -45 -940 -11 -162 -24 -407
-30 -544 -9 -229 -8 -251 7 -268 21 -23 54 -17 98 16 17 13 57 36 90 53 92 46
204 106 270 144 47 27 62 42 71 69 6 19 14 141 18 270 3 129 13 330 21 445 27
371 44 682 55 1005 10 287 19 471 52 995 15 249 15 255 -7 271 -21 15 -20 15
-55 5z"/>
    <path d="M79457 27659 c-151 -24 -334 -122 -495 -264 -123 -109 -293 -371
-327 -503 -8 -30 -23 -78 -34 -106 -32 -86 -53 -271 -81 -721 -5 -93 -15 -237
-21 -320 -14 -204 -26 -830 -19 -991 5 -121 8 -135 37 -195 48 -97 84 -141
141 -172 79 -43 129 -45 255 -9 205 59 395 205 563 432 88 119 188 339 210
461 7 41 20 106 28 145 21 94 33 242 46 539 11 272 25 528 40 785 12 194 15
532 5 575 -31 134 -58 199 -103 247 -75 81 -154 112 -245 97z m-201 -624 c20
-31 17 -127 -21 -785 -13 -228 -29 -550 -35 -715 -15 -412 -20 -459 -56 -526
-23 -43 -35 -55 -57 -57 -54 -6 -67 18 -67 131 0 232 56 1434 81 1741 11 142
23 182 64 214 37 29 71 28 91 -3z"/>
    <path d="M78370 27092 c-19 -16 -62 -42 -95 -59 -180 -89 -315 -165 -340 -194
-12 -12 -21 -55 -30 -141 -8 -68 -21 -170 -29 -227 -9 -57 -25 -213 -36 -345
-11 -133 -28 -309 -39 -393 -11 -84 -23 -212 -26 -285 -8 -167 -32 -368 -47
-385 -15 -19 -34 0 -42 40 -4 18 -10 302 -15 632 -12 764 -18 882 -44 908 -27
27 -74 17 -151 -31 -33 -22 -79 -48 -101 -59 -205 -102 -302 -163 -316 -201
-7 -18 -6 -75 5 -187 31 -319 36 -395 51 -710 15 -316 22 -431 50 -755 15
-174 25 -334 50 -800 9 -157 18 -296 21 -310 13 -61 71 -78 121 -36 15 13 91
56 168 96 77 40 172 90 210 110 39 21 95 51 125 67 118 63 200 115 210 133 14
26 77 458 100 690 6 63 22 178 35 255 13 77 27 176 30 220 6 82 54 425 60 435
2 3 11 73 20 155 8 83 29 245 45 360 17 116 37 275 45 355 8 80 26 215 39 300
42 261 51 357 36 375 -20 24 -71 18 -110 -13z"/>
    <path d="M76704 26195 c-27 -19 -53 -35 -57 -35 -4 0 -103 -51 -220 -113 -117
-63 -233 -123 -258 -134 -54 -24 -126 -92 -133 -125 -8 -41 -36 -260 -47 -368
-6 -58 -21 -168 -34 -245 -13 -77 -26 -176 -30 -220 -4 -44 -15 -141 -26 -215
-36 -241 -49 -343 -59 -445 -20 -218 -31 -304 -49 -400 -11 -55 -25 -163 -31
-240 -6 -77 -20 -192 -30 -255 -11 -63 -24 -164 -30 -225 -5 -60 -22 -191 -37
-291 -14 -99 -24 -188 -20 -197 11 -29 63 -20 140 25 40 23 108 61 152 84 182
95 211 113 239 148 32 39 36 67 65 402 12 134 16 141 112 200 65 39 79 41 102
16 15 -16 17 -46 17 -211 0 -113 4 -200 10 -212 15 -27 69 -25 111 6 19 13 66
40 104 60 158 82 194 102 252 139 78 48 84 64 73 198 -31 369 -42 522 -60 838
-11 195 -31 499 -44 675 -14 176 -27 390 -31 475 -12 329 -38 672 -53 686 -24
25 -75 16 -128 -21z m-242 -1508 c4 -216 9 -410 13 -433 7 -49 -7 -89 -43
-127 -49 -52 -121 -74 -150 -45 -14 14 -16 74 -3 114 6 16 19 135 31 264 28
318 74 599 103 638 8 11 13 10 26 -3 14 -13 17 -70 23 -408z"/>
    <path d="M75210 25421 c-262 -87 -542 -324 -663 -561 -16 -30 -37 -71 -47 -90
-26 -52 -79 -273 -90 -376 -13 -119 -12 -443 0 -522 12 -71 74 -205 111 -238
41 -37 141 -96 194 -114 96 -34 240 -108 284 -146 60 -52 73 -88 79 -224 7
-187 -29 -343 -94 -400 -41 -35 -64 -38 -90 -9 -24 27 -28 110 -16 329 10 173
5 215 -28 225 -21 7 -62 -8 -104 -38 -17 -12 -62 -38 -101 -58 -38 -20 -103
-54 -144 -75 -49 -25 -83 -51 -101 -76 -27 -36 -28 -45 -35 -196 -9 -183 6
-417 32 -509 23 -82 100 -165 168 -182 193 -49 433 51 662 276 232 228 329
435 360 768 18 199 14 631 -7 685 -29 76 -84 152 -140 195 -62 48 -237 134
-322 159 -75 21 -145 70 -171 120 -19 36 -22 56 -22 166 0 95 5 140 19 188 32
103 113 156 152 98 13 -21 15 -50 12 -169 -3 -158 2 -177 51 -177 14 0 42 10
61 22 46 29 201 114 270 149 30 15 68 41 84 58 29 30 30 35 39 179 9 151 -3
374 -24 430 -14 37 -77 101 -116 118 -47 20 -195 17 -263 -5z"/>
    <path d="M81963 25273 c-37 -20 -90 -47 -118 -61 -27 -13 -75 -39 -105 -57
-30 -19 -145 -81 -255 -140 -110 -59 -229 -123 -265 -143 -36 -19 -96 -52
-135 -72 -38 -20 -137 -74 -220 -120 -155 -86 -246 -135 -375 -202 -41 -21
-106 -57 -145 -79 -38 -23 -108 -61 -155 -86 -47 -25 -114 -62 -150 -81 -36
-19 -96 -51 -135 -72 -38 -20 -111 -60 -161 -88 -51 -27 -149 -80 -219 -117
-70 -36 -164 -87 -209 -112 -79 -45 -110 -62 -286 -156 -181 -96 -218 -116
-300 -162 -47 -27 -121 -67 -165 -90 -44 -23 -109 -58 -145 -77 -36 -20 -94
-51 -130 -70 -36 -19 -108 -59 -160 -88 -52 -29 -124 -69 -160 -88 -263 -140
-302 -162 -466 -251 -72 -39 -135 -71 -139 -71 -4 0 -19 -9 -35 -20 -15 -11
-90 -52 -166 -91 -77 -40 -150 -79 -164 -89 -14 -10 -83 -48 -155 -85 -167
-87 -274 -143 -355 -187 -36 -19 -238 -129 -450 -243 -212 -114 -407 -220
-435 -235 -70 -38 -528 -286 -595 -322 -30 -16 -91 -50 -135 -75 -44 -25 -111
-63 -150 -83 -274 -146 -314 -168 -510 -275 -88 -49 -191 -105 -230 -125 -38
-21 -108 -59 -155 -85 -47 -26 -146 -79 -220 -117 -74 -39 -140 -75 -147 -80
-6 -5 -44 -26 -85 -47 -40 -21 -98 -52 -128 -69 -129 -71 -381 -208 -460 -250
-107 -56 -196 -103 -285 -151 -103 -56 -244 -131 -290 -154 -22 -11 -59 -33
-82 -48 -23 -16 -53 -33 -67 -39 -14 -5 -71 -35 -128 -66 -57 -31 -139 -76
-183 -99 -116 -61 -230 -122 -305 -162 -36 -20 -99 -54 -140 -75 -146 -77
-206 -110 -295 -159 -91 -51 -192 -106 -300 -164 -33 -18 -132 -72 -220 -120
-88 -49 -182 -99 -210 -113 -27 -14 -61 -33 -75 -42 -14 -10 -86 -49 -160 -88
-74 -38 -173 -91 -220 -117 -47 -26 -146 -78 -220 -117 -74 -39 -140 -75 -147
-80 -6 -5 -35 -22 -65 -37 -29 -16 -163 -88 -298 -161 -328 -177 -362 -196
-455 -245 -161 -84 -284 -151 -530 -284 -93 -51 -190 -103 -215 -116 -25 -12
-117 -62 -205 -110 -88 -49 -191 -105 -230 -125 -38 -21 -142 -77 -230 -125
-235 -129 -284 -155 -350 -188 -33 -16 -67 -36 -76 -44 -9 -7 -52 -32 -95 -54
-154 -80 -210 -110 -285 -152 -149 -82 -371 -203 -452 -245 -45 -24 -111 -59
-147 -78 -36 -20 -101 -55 -145 -78 -44 -24 -111 -60 -150 -81 -38 -20 -106
-57 -150 -80 -44 -23 -111 -59 -150 -80 -76 -41 -167 -90 -285 -152 -41 -22
-106 -58 -145 -79 -38 -21 -101 -55 -140 -75 -38 -20 -142 -76 -230 -125 -88
-48 -191 -104 -230 -124 -38 -21 -137 -75 -220 -120 -82 -46 -178 -98 -212
-115 -33 -17 -67 -36 -75 -42 -7 -6 -76 -43 -153 -83 -77 -40 -151 -80 -165
-90 -14 -10 -41 -24 -60 -32 -19 -8 -82 -41 -140 -73 -58 -32 -133 -73 -167
-91 -114 -61 -186 -100 -358 -194 -192 -104 -267 -145 -375 -203 -41 -22 -108
-57 -147 -78 -40 -22 -106 -56 -145 -78 -76 -40 -139 -74 -298 -161 -52 -29
-129 -70 -170 -92 -133 -71 -214 -114 -285 -153 -38 -21 -101 -54 -140 -75
-38 -20 -137 -74 -220 -120 -162 -90 -567 -310 -680 -370 -80 -42 -191 -101
-285 -152 -36 -19 -132 -70 -215 -113 -82 -42 -161 -85 -175 -95 -14 -10 -43
-26 -65 -37 -22 -11 -112 -60 -200 -108 -88 -48 -196 -107 -240 -130 -150 -79
-210 -112 -360 -195 -82 -46 -186 -103 -230 -125 -105 -55 -191 -101 -295
-160 -47 -26 -114 -63 -150 -83 -147 -78 -209 -112 -280 -149 -41 -22 -116
-63 -166 -91 -51 -28 -147 -80 -215 -115 -68 -36 -167 -89 -219 -117 -52 -29
-124 -68 -160 -87 -36 -20 -101 -54 -145 -78 -114 -60 -198 -105 -295 -160
-47 -26 -146 -79 -220 -117 -74 -39 -146 -78 -160 -88 -14 -9 -47 -29 -75 -42
-27 -14 -84 -44 -125 -66 -41 -22 -109 -58 -150 -80 -41 -22 -111 -60 -155
-85 -44 -25 -109 -61 -145 -80 -154 -82 -206 -109 -215 -117 -5 -5 -75 -42
-155 -83 -222 -115 -284 -148 -295 -157 -5 -4 -68 -38 -138 -75 -71 -36 -149
-80 -175 -96 -25 -16 -51 -29 -57 -29 -6 0 -32 -13 -57 -29 -26 -16 -102 -59
-170 -94 -68 -36 -166 -89 -218 -118 -52 -29 -122 -67 -155 -84 -33 -18 -89
-48 -125 -68 -36 -19 -130 -70 -210 -112 -80 -43 -156 -86 -170 -95 -14 -10
-54 -32 -90 -49 -36 -17 -96 -48 -135 -70 -213 -117 -215 -119 -215 -189 0
-49 14 -82 34 -82 17 0 123 48 156 70 14 10 81 47 150 83 104 54 388 207 657
353 32 18 96 52 143 77 47 24 114 61 150 80 36 19 146 79 245 132 99 54 205
111 235 128 53 28 104 56 270 145 41 22 113 61 160 86 47 26 110 58 140 72 30
14 66 34 80 43 14 10 81 48 150 83 69 36 168 89 220 118 116 65 200 110 305
165 44 23 114 61 155 84 41 24 129 71 195 106 66 35 167 89 225 121 58 31 134
72 170 91 36 19 97 52 135 73 69 37 156 84 285 153 36 19 112 60 170 92 58 31
125 67 150 80 25 12 122 64 215 114 94 51 231 124 305 163 74 39 140 74 145
78 20 15 136 78 894 487 161 87 330 178 375 202 44 24 110 59 146 79 36 19 97
52 135 73 77 40 83 44 460 246 143 77 283 151 310 165 28 14 82 43 121 64 39
22 140 77 225 122 85 46 190 104 234 129 44 25 114 63 155 85 122 65 211 113
285 153 105 56 201 108 285 152 41 22 118 64 170 93 52 29 156 84 230 123 74
38 162 85 195 102 112 61 220 118 300 161 44 23 116 62 160 88 44 25 105 57
135 72 30 15 66 35 80 44 14 10 81 47 150 83 69 36 168 89 220 117 108 60 190
104 305 165 44 23 112 59 150 80 39 21 102 55 140 75 39 21 142 77 230 125
193 106 265 145 370 200 88 46 104 54 445 240 129 70 267 144 305 164 39 20
118 62 178 94 59 31 155 83 215 114 59 32 139 74 177 94 39 21 147 79 240 129
238 129 330 179 515 277 167 90 209 112 290 158 47 27 120 67 163 89 42 23
177 95 299 161 122 66 253 137 292 158 39 22 100 54 135 73 35 19 69 38 75 43
6 5 76 42 156 84 80 41 318 168 530 282 212 114 444 238 515 275 72 37 168 89
215 115 100 57 185 103 295 160 44 24 186 100 315 170 293 159 348 188 435
235 58 31 242 130 730 396 33 17 103 56 155 84 52 29 127 69 165 90 39 20 102
54 140 75 39 21 102 54 140 75 39 20 108 58 155 84 47 25 117 62 155 82 39 19
102 52 140 73 74 41 171 93 295 159 41 22 152 81 245 132 94 51 195 106 225
122 30 17 78 41 105 54 28 14 59 30 70 36 18 11 268 147 410 223 33 18 89 48
125 68 36 19 236 127 445 240 209 112 452 243 540 292 88 48 210 113 270 145
61 32 137 74 169 94 33 20 65 36 71 36 7 0 40 18 74 40 34 22 64 40 67 40 3 0
56 28 117 62 62 33 145 78 185 100 39 21 105 55 145 77 39 21 106 56 147 78
41 22 113 61 160 87 87 49 124 69 360 193 74 39 207 110 295 158 88 48 219
118 290 155 72 37 173 92 225 121 52 28 127 69 167 89 40 20 78 42 85 47 7 6
74 42 148 81 74 38 203 106 285 152 183 101 198 109 520 280 39 20 108 58 155
85 47 26 141 77 210 112 69 36 130 69 135 74 6 4 44 25 85 47 41 21 152 81
245 132 94 51 186 99 205 107 19 9 46 23 60 33 14 10 61 37 105 60 44 23 114
60 155 82 118 64 221 118 275 146 28 13 61 32 75 42 14 9 81 46 150 82 69 36
168 89 220 118 131 73 173 95 345 185 83 42 161 85 175 95 26 17 100 57 300
163 63 33 156 83 205 110 50 27 126 69 170 92 44 23 116 61 160 85 44 23 103
55 131 70 71 37 123 78 140 111 19 37 18 109 -2 137 -22 32 -62 28 -141 -15z"/>
    <path d="M73645 24568 c-49 -28 -146 -80 -215 -116 -68 -35 -174 -91 -235
-124 -60 -33 -141 -76 -179 -96 -38 -19 -85 -51 -106 -71 l-37 -36 -7 -255
c-3 -140 -11 -338 -16 -440 -26 -493 -41 -918 -55 -1490 -8 -344 -18 -658 -21
-698 -5 -61 -4 -76 11 -92 24 -27 55 -25 96 5 19 14 57 36 84 50 28 15 86 46
130 70 44 24 112 60 150 80 39 20 111 58 160 85 50 27 122 65 160 84 39 19 92
55 120 79 l49 44 8 257 c8 258 5 296 -26 296 -22 0 -136 -55 -225 -109 -135
-82 -143 -75 -141 111 1 73 5 201 8 285 7 151 8 152 37 183 29 30 93 69 216
130 94 47 101 67 111 294 4 105 10 208 13 229 14 98 -40 100 -195 7 -88 -53
-110 -57 -138 -27 -22 23 -22 26 -12 143 5 65 10 163 10 217 0 156 16 177 215
281 163 86 157 77 167 248 4 79 12 199 17 267 7 81 7 130 0 142 -16 31 -58 22
-154 -33z"/>
    <path d="M72310 23816 c-19 -8 -72 -28 -117 -45 -78 -29 -187 -82 -348 -170
-171 -93 -234 -126 -290 -154 -65 -32 -119 -77 -140 -117 -9 -18 -13 -75 -14
-189 -1 -90 -3 -166 -5 -170 -6 -9 -24 -550 -41 -1220 -16 -610 -31 -1023 -44
-1236 -9 -138 -1 -175 37 -175 9 0 58 23 107 51 50 28 153 84 230 124 186 97
177 77 186 384 26 803 39 1065 55 1088 22 34 60 46 92 31 56 -27 56 -31 43
-508 -7 -239 -16 -502 -21 -584 -9 -156 -6 -180 29 -191 23 -7 57 8 161 70 41
25 95 55 120 67 73 34 178 106 190 128 13 24 28 520 31 983 2 292 -4 329 -57
382 -19 19 -50 37 -76 43 -64 16 -75 33 -50 74 11 18 34 46 51 62 17 17 49 57
70 90 66 102 107 308 117 586 7 191 -5 321 -41 425 -30 85 -47 109 -109 152
-54 37 -104 42 -166 19z m-231 -652 c32 -40 35 -84 23 -294 -13 -226 -22 -264
-69 -320 -48 -55 -66 -64 -92 -42 -20 17 -20 20 -10 292 5 151 12 290 15 309
12 74 92 107 133 55z"/>
    <path d="M71089 23196 c-20 -7 -49 -22 -65 -32 -16 -11 -85 -49 -154 -83 -161
-81 -218 -119 -236 -154 -12 -21 -18 -117 -29 -405 -8 -207 -19 -489 -25 -627
-5 -137 -16 -522 -25 -855 -9 -333 -20 -708 -24 -835 -8 -193 -7 -234 5 -252
19 -30 62 -30 99 -2 27 22 93 58 235 130 106 53 171 99 191 134 19 33 30 239
49 975 25 952 31 1157 45 1475 8 187 17 377 21 422 5 74 4 83 -15 102 -24 24
-24 24 -72 7z"/>
    <path d="M70073 22658 c-32 -17 -69 -39 -83 -48 -14 -10 -57 -34 -95 -53 -170
-85 -420 -222 -462 -254 -18 -13 -38 -33 -44 -45 -6 -11 -19 -111 -30 -222
-10 -110 -23 -224 -28 -253 -11 -54 -41 -307 -61 -503 -6 -63 -22 -191 -36
-285 -13 -93 -29 -226 -35 -295 -5 -69 -19 -186 -30 -260 -25 -169 -44 -329
-59 -490 -6 -69 -22 -201 -35 -295 -14 -93 -29 -226 -35 -295 -6 -69 -14 -145
-17 -169 -4 -36 -2 -47 13 -58 28 -21 57 -15 104 20 24 17 74 47 110 65 36 18
83 43 105 54 76 39 194 110 209 127 24 26 34 97 41 291 10 227 24 263 127 316
98 50 104 39 113 -206 4 -107 12 -203 17 -212 17 -34 33 -28 247 89 42 23 113
60 157 82 47 24 96 57 114 78 30 34 32 39 26 92 -4 31 -11 124 -16 206 -5 83
-20 272 -34 420 -14 149 -33 383 -41 520 -8 138 -26 372 -40 520 -13 149 -31
383 -40 520 -18 276 -43 521 -56 546 -15 29 -46 28 -106 -3z m-262 -1136 c6
-15 12 -156 14 -317 3 -159 7 -355 10 -435 7 -169 4 -177 -89 -230 -105 -61
-114 -46 -92 158 9 86 25 253 36 371 11 117 22 217 25 221 3 4 14 61 25 125
24 146 45 176 71 107z"/>
    <path d="M69030 22101 c-14 -11 -76 -46 -137 -78 -62 -32 -145 -76 -185 -97
-80 -43 -191 -102 -308 -163 -155 -81 -198 -111 -209 -146 -5 -17 -14 -241
-20 -497 -6 -256 -13 -575 -16 -710 -9 -395 -44 -1537 -50 -1641 -5 -87 -4
-97 14 -113 26 -24 81 -16 125 18 18 13 59 37 91 54 212 106 297 158 315 193
6 10 13 63 15 117 7 134 26 857 27 967 0 50 4 104 10 122 11 37 63 87 115 108
85 36 195 109 209 140 17 38 37 470 24 496 -23 43 -70 31 -199 -51 -73 -45
-90 -48 -115 -21 -16 17 -17 42 -14 253 2 198 6 238 20 259 16 25 122 93 196
127 66 30 162 93 173 114 17 32 26 533 9 553 -17 20 -59 18 -90 -4z"/>
    <path d="M66954 20995 c-12 -8 -48 -28 -80 -46 -32 -17 -86 -46 -119 -64 -33
-18 -103 -56 -155 -85 -52 -29 -113 -61 -135 -72 -22 -10 -51 -26 -65 -34 -14
-8 -47 -26 -75 -39 -73 -36 -176 -106 -196 -135 -20 -28 -29 -289 -50 -1450
-5 -316 -16 -786 -24 -1045 -9 -324 -10 -474 -3 -482 17 -21 74 -15 105 10 26
22 264 152 603 329 74 39 160 90 190 112 l55 42 6 79 c6 68 12 385 10 452 -1
12 -9 24 -20 28 -24 7 -122 -33 -198 -82 -32 -21 -77 -47 -101 -57 -41 -18
-43 -18 -62 -1 -23 21 -24 61 -13 378 6 170 8 192 28 220 20 30 81 69 220 141
95 50 102 65 110 268 4 95 5 207 3 248 l-3 75 -32 3 c-33 3 -82 -18 -167 -73
-69 -44 -98 -50 -122 -24 -18 20 -19 37 -15 247 1 124 7 236 12 249 11 28 84
83 174 129 101 51 178 105 192 134 13 29 22 527 9 548 -10 16 -57 15 -82 -3z"/>
    <path d="M67680 20239 c-13 -6 -38 -21 -55 -34 -17 -12 -61 -37 -97 -53 -102
-46 -106 -57 -108 -323 -2 -268 -3 -255 16 -273 21 -21 84 -20 114 2 14 9 52
31 85 47 100 50 119 111 131 436 l7 176 -24 16 c-27 19 -34 20 -69 6z"/>
    <path d="M65540 20204 c-30 -14 -85 -37 -122 -49 -37 -13 -107 -45 -155 -71
-49 -25 -126 -67 -173 -91 -47 -25 -114 -60 -150 -79 -36 -19 -98 -52 -139
-74 -40 -21 -90 -54 -110 -74 l-36 -36 -7 -448 c-18 -1224 -30 -1857 -39
-2160 -7 -252 -7 -337 2 -348 20 -25 63 -15 149 34 47 27 141 78 210 115 165
87 209 135 194 211 -3 18 -1 169 5 337 6 167 13 438 17 602 7 298 7 299 31
328 31 36 80 40 109 8 17 -19 19 -41 22 -228 2 -113 -1 -386 -7 -605 -10 -367
-10 -401 5 -418 22 -24 44 -23 85 5 39 26 128 77 214 122 152 80 177 98 191
130 20 49 43 1117 25 1211 -21 114 -52 159 -131 185 -40 14 -70 37 -70 54 0 7
26 41 58 77 96 111 116 154 153 328 30 146 32 167 33 370 0 349 -43 486 -179
571 -44 28 -118 25 -185 -7z m-192 -627 c25 -30 30 -107 23 -318 -9 -237 -13
-252 -79 -321 -20 -21 -44 -38 -53 -38 -39 0 -41 17 -33 331 7 300 7 301 31
330 19 23 33 29 63 29 21 0 42 -6 48 -13z"/>
    <path d="M64291 19570 c-23 -17 -65 -42 -94 -56 -166 -81 -293 -158 -315 -192
-20 -30 -24 -209 -41 -1562 -6 -470 -14 -977 -17 -1126 l-7 -272 27 -17 c31
-21 20 -24 171 62 44 25 105 58 135 74 151 79 184 103 207 149 24 50 24 31 53
2110 6 393 13 738 16 766 8 70 -6 94 -55 94 -26 0 -51 -9 -80 -30z"/>
    <path d="M63220 18993 c-85 -47 -168 -92 -185 -101 -121 -61 -353 -188 -368
-200 -9 -8 -21 -31 -26 -51 -16 -60 -79 -596 -90 -761 -6 -85 -17 -189 -25
-230 -8 -41 -24 -176 -35 -300 -42 -449 -52 -546 -66 -630 -8 -47 -19 -150
-25 -230 -6 -80 -21 -233 -35 -340 -13 -107 -29 -251 -35 -320 -6 -69 -15
-156 -21 -193 -11 -77 -2 -103 35 -113 24 -6 79 16 91 36 3 5 38 26 78 45 40
19 107 54 149 78 42 23 99 54 127 70 75 41 83 57 92 210 21 314 23 333 54 372
36 48 113 97 145 93 38 -5 50 -41 51 -163 1 -162 12 -264 29 -275 35 -22 45
-18 250 94 47 25 117 62 156 81 40 19 86 51 104 71 31 35 32 40 26 98 -3 34
-11 140 -16 236 -6 96 -19 247 -30 335 -10 88 -26 241 -35 340 -31 363 -46
513 -60 630 -8 66 -19 176 -25 245 -20 250 -41 476 -50 535 -5 33 -16 133 -24
223 -9 89 -20 171 -26 182 -6 11 -20 20 -33 19 -12 0 -92 -39 -177 -86z m-151
-1143 c11 -62 40 -555 44 -729 l2 -113 -39 -34 c-21 -18 -59 -41 -83 -50 -43
-17 -45 -17 -65 3 -20 21 -20 23 -4 119 9 55 25 240 36 411 22 331 32 413 57
452 13 20 17 21 29 9 8 -7 18 -38 23 -68z"/>
    <path d="M62260 18481 c-41 -21 -109 -56 -150 -78 -112 -60 -197 -106 -280
-150 -332 -178 -365 -198 -381 -230 -14 -27 -17 -100 -23 -495 -4 -255 -11
-690 -17 -968 -22 -1148 -26 -1485 -17 -1504 13 -25 84 -17 128 14 18 13 63
39 99 58 36 19 98 51 136 71 99 52 152 87 170 114 12 19 16 102 25 488 5 255
10 523 10 596 l0 132 43 42 c23 24 92 69 156 103 63 34 123 72 133 86 15 22
19 56 24 265 7 234 6 240 -14 258 -18 17 -25 17 -57 7 -19 -6 -59 -28 -88 -47
-98 -66 -142 -79 -167 -48 -15 18 -15 430 0 486 14 52 17 54 205 153 82 43
153 93 169 119 21 34 29 518 9 546 -19 28 -25 27 -113 -18z"/>
    <path d="M60393 17445 c-34 -7 -82 -25 -106 -39 -24 -15 -68 -33 -98 -42 -29
-9 -96 -39 -148 -67 -53 -28 -127 -68 -166 -88 -360 -189 -366 -193 -392 -242
-18 -36 -18 -58 -34 -1685 -11 -1201 -11 -1253 6 -1272 25 -27 42 -25 106 13
31 19 127 71 214 118 87 46 172 98 190 114 l32 30 7 215 c3 118 7 408 7 645 1
244 5 441 11 455 24 65 95 92 131 52 30 -33 34 -138 26 -684 -6 -369 -6 -545
1 -559 15 -26 56 -24 110 6 25 13 113 61 196 105 103 54 163 93 188 120 l35
39 3 388 c3 574 -1 779 -17 839 -17 60 -82 139 -122 149 -44 10 -73 33 -73 57
0 13 26 48 63 87 52 54 70 82 99 156 22 56 41 126 49 185 17 121 18 528 1 630
-23 139 -101 255 -189 279 -46 13 -52 13 -130 -4z m-228 -648 c39 -33 45 -85
36 -302 -7 -159 -12 -199 -30 -247 -23 -59 -56 -94 -98 -105 -50 -12 -51 -2
-45 322 l5 299 28 28 c34 34 69 36 104 5z"/>
    <path d="M59104 16799 c-74 -40 -198 -105 -289 -154 -79 -41 -119 -75 -134
-114 -15 -40 -41 -2915 -26 -2953 11 -28 54 -21 125 22 36 22 94 55 130 73
136 72 234 128 253 144 45 42 44 19 52 1028 3 528 10 1183 15 1455 4 297 4
502 -2 513 -13 26 -58 21 -124 -14z"/>
    <path d="M58000 16216 c-229 -69 -421 -204 -586 -412 -45 -57 -120 -183 -143
-242 -12 -29 -30 -76 -42 -104 -39 -98 -69 -266 -81 -443 -6 -93 -11 -512 -12
-930 l-1 -760 28 -88 c36 -115 55 -151 115 -213 78 -82 159 -100 315 -70 134
26 332 149 475 295 144 149 289 422 325 616 24 124 37 396 46 920 9 619 0
1040 -27 1147 -44 176 -157 287 -300 294 -38 2 -86 -2 -112 -10z m-144 -607
c18 -20 19 -43 22 -358 5 -578 -14 -1556 -31 -1625 -17 -69 -42 -97 -85 -98
-42 -1 -60 16 -67 65 -11 80 12 1889 24 1930 16 49 67 107 95 107 13 0 31 -9
42 -21z"/>
    <path d="M56939 15640 c-30 -22 -57 -40 -61 -40 -5 0 -89 -43 -187 -96 -118
-62 -185 -104 -197 -122 -13 -19 -20 -60 -26 -142 -5 -63 -17 -221 -28 -350
-11 -129 -22 -264 -25 -300 -3 -36 -12 -235 -20 -442 -8 -207 -17 -395 -21
-417 -8 -48 -35 -79 -52 -58 -16 19 -30 122 -42 312 -5 94 -15 242 -20 330 -6
88 -17 268 -26 400 -29 463 -28 456 -55 477 -28 24 -70 18 -114 -15 -16 -12
-64 -39 -105 -61 -281 -146 -332 -176 -349 -208 -13 -23 -13 -43 -2 -158 7
-73 19 -173 27 -223 8 -51 27 -224 44 -385 16 -162 37 -337 45 -390 8 -54 24
-191 35 -307 11 -115 31 -295 45 -400 14 -104 32 -269 40 -365 9 -96 25 -230
36 -298 10 -67 19 -147 19 -177 0 -113 40 -139 124 -81 29 20 57 36 62 36 6 0
35 15 65 33 30 18 70 39 89 47 19 7 46 21 60 30 14 10 75 43 135 75 238 123
295 158 316 191 20 33 38 171 54 404 3 52 14 165 25 250 22 184 23 193 55 565
13 160 29 314 35 343 5 29 19 164 30 300 11 136 30 337 41 447 24 233 33 330
54 555 9 91 18 182 21 203 5 28 2 43 -11 57 -27 30 -57 24 -116 -20z"/>
    <path d="M55265 14746 c-11 -7 -72 -41 -135 -74 -63 -33 -158 -84 -210 -112
-119 -66 -208 -114 -285 -154 -104 -54 -106 -60 -150 -606 -14 -179 -32 -374
-40 -435 -8 -60 -26 -252 -40 -425 -14 -173 -29 -351 -35 -395 -22 -175 -40
-380 -50 -570 -6 -110 -15 -225 -20 -255 -5 -30 -16 -113 -24 -185 -9 -71 -21
-167 -27 -212 -13 -95 -4 -123 39 -123 15 0 45 12 67 27 22 15 69 43 105 61
275 145 319 170 337 199 12 19 19 61 25 152 16 273 25 338 49 377 25 41 101
94 135 94 13 0 31 -11 42 -24 16 -21 20 -48 25 -173 9 -191 14 -221 43 -240
19 -12 30 -13 61 -3 21 7 52 22 68 35 30 22 122 72 265 146 41 21 92 53 114
70 l39 33 -7 60 c-3 34 -10 93 -15 131 -10 77 -32 279 -57 510 -8 83 -22 194
-30 248 -8 53 -21 173 -29 265 -8 92 -27 252 -41 357 -14 104 -32 266 -40 360
-8 93 -25 251 -39 350 -13 99 -29 230 -35 290 -5 61 -12 132 -15 159 -2 26
-10 54 -16 62 -15 18 -49 18 -74 0z m-264 -1367 c19 -218 39 -534 39 -632 0
-55 -3 -62 -35 -92 -19 -18 -55 -41 -80 -51 -45 -17 -47 -17 -67 3 -19 20 -20
26 -9 85 6 34 18 189 26 343 24 450 32 533 50 562 l17 25 20 -20 c17 -17 23
-48 39 -223z"/>
    <path d="M53715 13931 c-55 -15 -118 -38 -140 -52 -22 -13 -53 -30 -69 -37
-95 -42 -315 -242 -399 -365 -58 -84 -133 -239 -142 -292 -4 -22 -20 -92 -37
-155 -35 -135 -49 -297 -37 -446 6 -80 16 -123 53 -223 24 -68 57 -140 73
-160 60 -74 167 -134 358 -200 86 -30 185 -81 223 -115 13 -12 34 -39 45 -61
20 -37 22 -55 22 -225 0 -182 0 -186 -27 -236 -28 -54 -79 -104 -105 -104 -8
0 -28 13 -44 29 l-29 29 0 241 c0 204 -2 242 -16 255 -22 23 -67 20 -90 -5
-10 -12 -48 -36 -84 -54 -225 -112 -316 -169 -337 -208 -37 -72 11 -601 64
-698 78 -145 215 -191 411 -140 255 66 561 332 692 600 43 89 45 95 102 431 7
41 8 142 5 275 -7 227 -28 369 -68 452 -50 103 -194 203 -377 263 -137 45
-225 80 -246 98 -10 9 -29 36 -43 60 -24 41 -26 52 -26 180 0 121 2 143 22
188 43 100 102 129 144 72 18 -24 20 -44 21 -175 1 -81 5 -154 10 -162 12 -18
77 -9 113 17 15 11 78 45 138 77 187 97 235 126 252 151 12 19 15 57 14 209
-3 333 -43 444 -178 495 -72 27 -146 24 -268 -9z"/>
  </g>
</svg>
